HIERARCHY
ROOT root
{
	OFFSET 0.000000 0.000000 0.000000
	CHANNELS 6 Xposition Yposition Zposition Zrotation Yrotation Xrotation
	JOINT lhip
	{
		OFFSET 0.058581 -0.082280 -0.017664
		CHANNELS 3 Zrotation Yrotation Xrotation
		JOINT lknee
		{
			OFFSET 0.043451 -0.386469 0.008037
			CHANNELS 3 Zrotation Yrotation Xrotation
			JOINT lankle
			{
				OFFSET -0.014790 -0.426874 -0.037428
				CHANNELS 3 Zrotation Yrotation Xrotation
				JOINT ltoe
				{
					OFFSET 0.041054 -0.060286 0.122042
					CHANNELS 3 Zrotation Yrotation Xrotation
					End Site
					{
						OFFSET 0.000000 0.000000 0.000000
					}
				}
			}
		}
	}
	JOINT rhip
	{
		OFFSET -0.060310 -0.090513 -0.013543
		CHANNELS 3 Zrotation Yrotation Xrotation
		JOINT rknee
		{
			OFFSET -0.043257 -0.383688 -0.004843
			CHANNELS 3 Zrotation Yrotation Xrotation
			JOINT rankle
			{
				OFFSET 0.019056 -0.420046 -0.034562
				CHANNELS 3 Zrotation Yrotation Xrotation
				JOINT rtoe
				{
					OFFSET -0.034840 -0.062106 0.130323
					CHANNELS 3 Zrotation Yrotation Xrotation
					End Site
					{
						OFFSET 0.000000 0.000000 0.000000
					}
				}
			}
		}
	}
	JOINT lowerback
	{
		OFFSET 0.004439 0.124404 -0.038385
		CHANNELS 3 Zrotation Yrotation Xrotation
		JOINT upperback
		{
			OFFSET 0.004488 0.137956 0.026820
			CHANNELS 3 Zrotation Yrotation Xrotation
			JOINT chest
			{
				OFFSET -0.002265 0.056032 0.002855
				CHANNELS 3 Zrotation Yrotation Xrotation
				JOINT lowerneck
				{
					OFFSET -0.013390 0.211636 -0.033468
					CHANNELS 3 Zrotation Yrotation Xrotation
					JOINT upperneck
					{
						OFFSET 0.010113 0.088937 0.050410
						CHANNELS 3 Zrotation Yrotation Xrotation
						End Site
						{
							OFFSET 0.000000 0.000000 0.000000
						}
					}
				}
				JOINT lclavicle
				{
					OFFSET 0.071702 0.114000 -0.018898
					CHANNELS 3 Zrotation Yrotation Xrotation
					JOINT lshoulder
					{
						OFFSET 0.122921 0.045205 -0.019046
						CHANNELS 3 Zrotation Yrotation Xrotation
						JOINT lelbow
						{
							OFFSET 0.255332 -0.015649 -0.022946
							CHANNELS 3 Zrotation Yrotation Xrotation
							JOINT lwrist
							{
								OFFSET 0.265709 0.012698 -0.007375
								CHANNELS 3 Zrotation Yrotation Xrotation
								End Site
								{
									OFFSET 0.000000 0.000000 0.000000
								}
							}
						}
					}
				}
				JOINT rclavicle
				{
					OFFSET -0.082954 0.112472 -0.023707
					CHANNELS 3 Zrotation Yrotation Xrotation
					JOINT rshoulder
					{
						OFFSET -0.113228 0.046853 -0.008472
						CHANNELS 3 Zrotation Yrotation Xrotation
						JOINT relbow
						{
							OFFSET -0.260127 -0.014369 -0.031269
							CHANNELS 3 Zrotation Yrotation Xrotation
							JOINT rwrist
							{
								OFFSET -0.269108 0.006794 -0.006027
								CHANNELS 3 Zrotation Yrotation Xrotation
								End Site
								{
									OFFSET 0.000000 0.000000 0.000000
								}
							}
						}
					}
				}
			}
		}
	}
}
MOTION
Frames: 13
Frame Time: 0.033333
2.357490 0.688303 1.001275 -79.248847 -0.282487 84.351707 -3.289747 -3.745947 1.857372 -1.319631 -12.969410 4.300394 2.964994 5.209928 -10.010634 0.000000 -0.000000 0.000000 -0.708602 -4.172959 -1.524427 -3.374988 -6.111081 14.927586 0.879457 -12.602685 -14.607413 0.000000 -0.000000 0.000000 -0.795846 4.264841 7.847709 -2.333108 0.060168 8.349219 0.743830 1.769474 -3.111845 -0.487932 26.163659 -3.573919 -6.290363 24.537509 -14.566098 -30.871084 -13.007179 3.924954 -47.389007 -7.555302 13.723196 -3.196109 -23.405900 14.300048 2.874749 -7.365110 -1.205570 28.837037 14.173658 12.219844 52.122908 9.370736 17.614711 -3.707842 26.941763 8.475638 -2.902228 4.806684 1.289096 
2.356958 0.687590 1.000522 -79.215535 -0.548600 83.990703 -3.759029 -3.816594 2.496422 -1.096463 -13.309868 3.868435 2.425281 5.609513 -9.673963 0.000000 -0.000000 0.000000 -0.918455 -3.583709 -0.982227 -3.601603 -6.157170 14.765035 0.940193 -13.397011 -14.807021 0.000000 -0.000000 0.000000 -0.890217 4.042809 8.464972 -2.542158 0.261282 7.548650 0.717353 1.776758 -2.386019 -0.330376 26.323810 -3.657388 -6.322674 24.783414 -14.426181 -30.298622 -12.981130 3.941029 -48.008670 -7.822375 13.674700 -2.817308 -23.369572 14.704630 2.356029 -8.039124 -1.699883 28.200693 14.185082 11.892282 52.996366 9.387151 17.912052 -4.250200 26.646915 8.684591 -2.368436 4.961298 1.063330 
2.357224 0.687754 1.000841 -79.269361 -0.414860 84.276055 -3.513094 -3.812946 2.066071 -1.175799 -13.063970 4.048124 2.553650 5.437365 -9.777396 0.000000 -0.000000 0.000000 -0.847515 -3.769544 -1.406352 -3.468666 -6.174501 14.917164 0.950944 -13.074754 -14.626271 0.000000 -0.000000 0.000000 -0.772430 4.127052 8.152401 -2.528902 0.259528 7.704632 0.692169 1.699869 -2.440889 -0.357434 26.294418 -3.531814 -6.486408 24.867058 -14.679599 -30.370790 -12.964012 3.895064 -47.941754 -7.873761 13.789089 -2.959227 -23.368316 14.831053 2.995020 -7.483211 -1.435477 28.053357 14.139839 11.838505 53.068273 9.319467 18.116243 -4.032755 27.129091 8.855619 -2.924716 4.869864 0.389235 
2.356791 0.687569 1.000733 -79.251827 -0.456739 84.149124 -3.583779 -3.813790 2.295903 -1.196680 -13.166484 3.980499 2.571567 5.513625 -9.713834 0.000000 -0.000000 0.000000 -0.868173 -3.837164 -1.267055 -3.544864 -6.045365 15.011070 0.864375 -13.064583 -14.710309 0.000000 -0.000000 0.000000 -0.901188 4.109374 8.205532 -2.517560 0.227109 7.914932 0.700370 1.838796 -2.403976 -0.374390 26.376417 -3.714749 -6.307388 24.915347 -14.803636 -30.220382 -13.199013 3.832947 -48.141806 -7.826115 13.866261 -2.880542 -23.290505 15.011170 3.423499 -7.620848 -1.281252 28.011601 14.375187 11.886193 53.179482 9.169284 17.960322 -4.403180 27.105408 8.689101 -2.824002 4.956041 0.707502 
2.356800 0.687873 1.000874 -79.375820 -0.380133 84.316111 -3.434688 -3.772135 1.994188 -1.278717 -13.058030 4.214794 2.444506 5.352792 -9.872031 0.000000 -0.000000 0.000000 -0.764636 -3.824956 -1.498714 -3.544523 -6.083138 15.078596 0.752244 -13.048902 -14.669971 0.000000 -0.000000 0.000000 -0.880044 4.153635 8.050785 -2.526123 0.231233 7.981918 0.690430 1.808368 -2.489027 -0.254526 26.353760 -3.717899 -6.430426 24.965277 -14.729109 -30.309663 -13.149459 3.892078 -48.033373 -7.785242 13.985791 -2.916008 -23.160887 15.312325 4.169659 -7.819413 -1.068605 27.924271 14.281034 11.927355 53.235580 9.376049 18.041340 -3.994283 27.053942 8.873849 -3.619976 5.110607 0.313962 
2.356432 0.687787 1.000828 -79.399348 -0.350264 84.348274 -3.359588 -3.767725 1.978030 -1.339606 -12.949927 4.239961 2.617842 5.357761 -9.930176 0.000000 -0.000000 0.000000 -0.742379 -3.829569 -1.499197 -3.511444 -6.064952 15.074261 0.696422 -12.955390 -14.621261 0.000000 -0.000000 0.000000 -0.912732 4.068190 7.968042 -2.507686 0.184405 8.125517 0.678629 1.810659 -2.510230 -0.314705 26.481212 -3.859751 -6.406173 25.070565 -14.792992 -30.316300 -13.102150 4.016839 -48.050621 -7.746648 13.886283 -2.619377 -23.630839 14.982356 3.542517 -7.688827 -1.495309 27.881285 14.335946 11.986112 53.355739 9.517967 18.083952 -4.215394 26.980459 8.774399 -2.974746 4.755758 0.147393 
2.355791 0.687360 1.000891 -79.493674 -0.434982 84.160599 -3.539910 -3.618946 2.350252 -1.201303 -13.016924 4.052693 2.602974 5.382924 -9.836259 0.000000 -0.000000 0.000000 -0.861412 -3.953578 -1.191969 -3.558144 -5.949079 14.979989 0.843218 -12.796706 -14.632510 0.000000 -0.000000 0.000000 -0.955652 4.059516 8.089836 -2.586318 0.182222 8.254896 0.683538 1.807160 -2.487702 -0.390959 26.638542 -3.965385 -6.578327 25.276504 -14.779068 -30.311949 -13.127337 3.948286 -48.068492 -7.711630 13.868256 -2.697703 -23.459096 15.063488 4.026086 -8.012018 -1.238444 27.858606 14.458292 12.011707 53.354890 9.533434 18.107306 -4.191471 27.003560 8.613550 -3.357143 4.991672 0.216359 
2.355299 0.687489 1.000723 -79.313621 -0.344699 84.274989 -3.365192 -3.725481 2.075379 -1.403538 -12.958353 4.453564 2.739401 5.267597 -10.086593 0.000000 -0.000000 0.000000 -0.779094 -4.118611 -1.192602 -3.507678 -5.992917 14.847798 0.840944 -12.829724 -14.624990 0.000000 -0.000000 0.000000 -0.992542 3.974669 7.857088 -2.508401 -0.016820 8.503146 0.691531 1.781532 -2.580752 -0.442073 26.632979 -4.069598 -6.682234 25.338030 -15.084837 -30.268956 -13.088061 4.069055 -48.091461 -7.649877 13.822122 -2.622734 -23.695181 15.067048 3.747905 -7.939660 -1.531272 27.728480 14.352417 11.922969 53.425661 9.677277 18.033999 -4.018432 27.014962 8.852164 -2.963692 4.899187 0.346338 
2.354264 0.687415 1.000359 -79.039974 -0.434867 84.125244 -3.523984 -3.739319 2.372215 -1.278874 -13.145929 4.266623 2.600815 5.120850 -10.127833 0.000000 -0.000000 0.000000 -0.773859 -4.231122 -0.792417 -3.675074 -5.917299 14.619941 0.833207 -12.930901 -14.696809 0.000000 -0.000000 0.000000 -1.276734 3.933767 7.846492 -2.453660 -0.192341 8.715098 0.771740 1.789221 -2.620842 -0.292748 26.608747 -4.159129 -6.604967 25.177613 -15.542412 -30.160372 -13.216879 4.174903 -48.186543 -7.710119 13.709089 -2.684873 -23.584109 15.043072 3.327004 -7.954302 -1.528576 27.801876 14.514143 11.957922 53.477845 9.613612 17.967270 -4.375716 26.931436 8.548562 -2.584754 4.843814 0.397334 
2.354808 0.687791 1.000163 -79.504699 -0.492962 84.093567 -3.505492 -3.618394 2.465003 -1.433550 -12.962331 4.227068 2.640464 5.350761 -10.076862 0.000000 -0.000000 0.000000 -0.845039 -3.913146 -1.003785 -3.695046 -5.901949 14.950587 0.847427 -12.884100 -14.775083 0.000000 -0.000000 0.000000 -1.365259 3.889220 8.151953 -2.502134 0.084981 8.440080 0.807351 1.872525 -2.547838 -0.252520 26.481475 -4.370828 -6.636367 25.168785 -15.701418 -30.290812 -13.173711 4.077042 -48.178102 -7.684651 13.564387 -2.568840 -23.679295 14.415746 2.630023 -7.527369 -1.427933 27.856450 14.698823 11.911336 53.405736 9.532020 18.107449 -4.456893 26.979737 8.489497 -2.301151 4.696551 0.526013 
2.354561 0.687444 1.000232 -79.650074 -0.474314 84.025267 -3.551274 -3.596768 2.649459 -1.309073 -12.926351 4.107105 2.618540 5.420466 -10.168820 0.000000 -0.000000 0.000000 -0.865779 -3.719709 -0.907029 -3.589760 -5.868960 14.947051 0.846491 -12.840344 -14.735213 0.000000 -0.000000 0.000000 -1.314048 3.912488 8.292135 -2.507071 0.138644 8.316718 0.781260 1.865540 -2.548889 -0.155296 26.602147 -4.411799 -6.405173 25.072617 -15.479049 -30.406109 -13.229339 4.062967 -48.108309 -7.556846 13.602371 -2.486505 -23.746915 14.275112 2.271152 -7.587568 -1.467754 28.051394 14.705983 11.897858 53.212356 9.407069 18.120874 -4.613036 27.149357 8.355587 -2.008061 4.517029 0.323723 
2.353881 0.687347 1.000100 -79.551070 -0.408785 84.097247 -3.467012 -3.642293 2.621435 -1.316371 -13.013138 4.031005 2.598011 5.457269 -10.040719 0.000000 -0.000000 0.000000 -0.767267 -3.738365 -0.865344 -3.619520 -5.883015 14.803333 0.794968 -13.096455 -14.783050 0.000000 -0.000000 0.000000 -1.358122 3.898660 7.959507 -2.407563 0.055197 8.504239 0.803580 1.820459 -2.425602 -0.009294 26.499382 -4.456101 -6.466121 24.992100 -15.372294 -30.324104 -13.079803 3.970036 -48.159808 -7.733027 13.632632 -2.562420 -23.786206 14.424355 2.033901 -7.431095 -1.629606 27.957019 14.499511 11.734092 53.271459 9.600881 18.195441 -4.503904 27.071421 8.487669 -1.693908 4.367303 0.387317 
2.353825 0.687073 0.999938 -79.656180 -0.481198 84.067927 -3.626880 -3.710153 2.720962 -1.224174 -12.973507 3.955327 2.614117 5.603751 -9.978865 0.000000 -0.000000 0.000000 -0.811223 -3.538166 -0.817235 -3.712651 -5.886201 14.783041 0.743059 -13.165420 -14.657252 0.000000 -0.000000 0.000000 -1.392534 3.875381 8.040746 -2.410811 0.189419 8.374022 0.810209 1.814885 -2.326542 -0.045902 26.382855 -4.467542 -6.422293 24.912179 -15.234352 -30.272547 -13.064746 3.937550 -48.323059 -7.814071 13.619316 -2.418808 -23.815598 14.365194 1.361919 -7.223740 -1.681125 27.961009 14.420659 11.754347 53.321987 9.589922 18.162126 -4.832070 27.232600 8.467098 -0.766126 4.177268 0.583817 
